<?xml version="1.0" encoding="utf-8"?>
<!-- Generator: Adobe Illustrator 25.3.1, SVG Export Plug-In . SVG Version: 6.00 Build 0)  -->
<svg version="1.1" id="Capa_1" xmlns="http://www.w3.org/2000/svg" xmlns:xlink="http://www.w3.org/1999/xlink" x="0px" y="0px"
	 viewBox="0 0 300 96" style="enable-background:new 0 0 300 96;" xml:space="preserve">
<style type="text/css">
	.st0{fill:#FFFFFF;}
	.st1{fill-rule:evenodd;clip-rule:evenodd;fill:#FFFFFF;}
	.st2{fill:#08E394;}
	.st3{fill-rule:evenodd;clip-rule:evenodd;fill:#08E394;}
</style>
<path class="st0" d="M155.9,32.4h9.2v38.3c0,2.9,0,4.4,0.7,6.6h-8.1c-1.4-1-1.8-3.8-1.8-5c-1.1,2.5-3.5,5.7-8.2,5.7
	c-6.4,0-7.9-4.5-7.9-14.2V32.4h9.2v32.1c0,3.7,1,5,3.3,5c2.4,0,3.6-1.5,3.6-5V32.4z"/>
<path class="st0" d="M118,16h23.9v9.2h-7.3v52.1h-9.3V25.2H118V16z"/>
<path class="st0" d="M249,32.4h9.2v38.3c0,2.9,0,4.4,0.7,6.6h-8.1c-1.4-1-1.8-3.8-1.8-5c-1.1,2.5-3.5,5.7-8.2,5.7
	c-6.4,0-7.9-4.5-7.9-14.2V32.4h9.2v32.1c0,3.7,1,5,3.3,5c2.4,0,3.6-1.5,3.6-5V32.4z"/>
<path class="st0" d="M284.3,37.8c1.2-3.2,4.2-6.2,8.4-6.2c6,0,7.3,4.5,7.3,14.2v31.4h-9.2V45.2c0-3.7-0.9-5-2.8-5
	c-2,0-3.1,1.5-3.1,5v32.1h-9.3V45.2c0-3.7-0.9-5-2.8-5c-2,0-3.2,1.5-3.2,5v32.1h-9.2V32.4h9.2v5c1.1-2.6,3.5-5.7,7.8-5.7
	C281.5,31.7,283.4,33.7,284.3,37.8z"/>
<path class="st0" d="M230.7,77.3h-9.2V16h9.2V77.3z"/>
<path class="st0" d="M176.1,32.4l3.7,34.2l3.6-34.2h9.2L186,77.3h-12.5l-6.6-44.9H176.1z"/>
<path class="st1" d="M219,45.7c0-9.1-3.5-14-12.4-14c-9.1,0-12.7,5-12.7,14.2v1.3h9.2v-1.5c0-3.9,1-5.5,3.5-5.5c2.2,0,3.2,1,3.2,4.1
	c0,3.2-2.9,4.9-6.2,6.8c-4.8,2.8-10.6,6.1-10.6,15.4c0,7.9,4,11.5,8.8,11.5c4,0,6.3-1.8,7.9-5.7c0,1.2,0.3,3.9,1.8,5h8.1
	c-0.7-2.4-0.7-3.9-0.7-6.6V45.7z M205.8,69.5c2.1,0,3.4-1.9,4-2.8v-12c-0.7,1.2-1.9,2.2-3.2,3.2c-2.2,1.8-4.4,3.6-4.4,7
	C202.2,67.8,203.6,69.5,205.8,69.5z"/>
<path class="st2" d="M60.7,36.8L87.8,28c1.3,2.9,2.3,6,3,9.3l-27.1,8.8l27.1,8.8c-0.7,3.2-1.7,6.3-3,9.2L51.6,52.4
	c-2.4-0.8-5-0.8-7.4,0L8.3,64c-1.3-2.9-2.4-6-3-9.2l26.9-8.7L5.2,37.3c0.6-3.2,1.6-6.3,3-9.3l27.1,8.8L18.5,13.7
	c2.4-2.2,5-4.1,7.8-5.7l16.8,23.1V2.5c1.6-0.2,3.2-0.3,4.9-0.3c1.6,0,3.2,0.1,4.8,0.3v28.5L69.6,8c2.8,1.6,5.5,3.5,7.8,5.7
	L60.7,36.8z"/>
<path class="st3" d="M48,58.3c-9.8,0-17.7,8-17.7,17.7S38.2,93.8,48,93.8s17.7-8,17.7-17.7C65.7,66.3,57.7,58.3,48,58.3z M38.9,76
	c0,5,4.1,9.1,9.1,9.1c5,0,9.1-4.1,9.1-9.1S53,66.9,48,66.9C43,66.9,38.9,71,38.9,76z"/>
</svg>
